<?xml version="1.0" standalone="no"?>
<!DOCTYPE svg PUBLIC "-//W3C//DTD SVG 20010904//EN"
 "http://www.w3.org/TR/2001/REC-SVG-20010904/DTD/svg10.dtd">
<svg version="1.0" xmlns="http://www.w3.org/2000/svg"
 width="116.000000pt" height="116.000000pt" viewBox="0 0 116.000000 116.000000"
 preserveAspectRatio="xMidYMid meet">
<metadata>
Created by potrace 1.14, written by Peter Selinger 2001-2017
</metadata>
<g transform="translate(0.000000,116.000000) scale(0.100000,-0.100000)"
fill="#000000" stroke="none">
<path d="M0 580 l0 -580 580 0 580 0 0 580 0 580 -580 0 -580 0 0 -580z m887
469 c40 -15 91 -67 104 -106 21 -66 -11 -151 -102 -266 l-54 -67 -94 0 c-74 0
-98 -4 -113 -17 -20 -18 -23 -45 -8 -74 10 -17 22 -19 114 -19 138 0 161 -6
212 -54 46 -45 61 -90 50 -152 -9 -46 -68 -111 -115 -124 -22 -7 -130 -10
-283 -8 l-247 3 41 52 41 53 203 0 c199 0 203 0 231 24 25 21 26 26 15 50 -17
37 -49 46 -170 46 -99 0 -109 2 -145 27 -87 61 -99 179 -25 250 48 44 70 53
137 53 l61 0 -30 47 c-59 93 -61 162 -7 228 48 59 117 79 184 54z m-553 -453
c42 -17 92 -79 101 -122 3 -19 1 -51 -5 -72 -12 -45 -71 -139 -124 -197 l-36
-40 -49 53 c-109 119 -143 238 -91 315 45 67 131 93 204 63z"/>
<path d="M803 935 c-25 -18 -31 -63 -11 -83 21 -21 66 -14 84 14 16 24 16 27
-3 52 -25 33 -41 37 -70 17z"/>
<path d="M232 480 c-12 -12 -22 -29 -22 -39 0 -40 69 -68 98 -39 20 20 14 65
-10 82 -29 21 -40 20 -66 -4z"/>
</g>
</svg>
